<?xml version="1.0" encoding="UTF-8" standalone="no"?>
<!-- Generator: Adobe Illustrator 18.1.1, SVG Export Plug-In . SVG Version: 6.00 Build 0)  -->

<svg
   xmlns:dc="http://purl.org/dc/elements/1.1/"
   xmlns:cc="http://creativecommons.org/ns#"
   xmlns:rdf="http://www.w3.org/1999/02/22-rdf-syntax-ns#"
   xmlns:svg="http://www.w3.org/2000/svg"
   xmlns="http://www.w3.org/2000/svg"
   xmlns:sodipodi="http://sodipodi.sourceforge.net/DTD/sodipodi-0.dtd"
   xmlns:inkscape="http://www.inkscape.org/namespaces/inkscape"
   version="1.1"
   id="Capa_1"
   x="0px"
   y="0px"
   viewBox="0 0 141.7 141.7"
   enable-background="new 0 0 141.7 141.7"
   xml:space="preserve"
   sodipodi:docname="cf_icon_sysid_white.svg"
   inkscape:version="0.92.3 (2405546, 2018-03-11)"><metadata
   id="metadata4542"><rdf:RDF><cc:Work
       rdf:about=""><dc:format>image/svg+xml</dc:format><dc:type
         rdf:resource="http://purl.org/dc/dcmitype/StillImage" /><dc:title></dc:title></cc:Work></rdf:RDF></metadata><defs
   id="defs4540">
		
	</defs><sodipodi:namedview
   pagecolor="#ffffff"
   bordercolor="#666666"
   borderopacity="1"
   objecttolerance="10"
   gridtolerance="10"
   guidetolerance="10"
   inkscape:pageopacity="0"
   inkscape:pageshadow="2"
   inkscape:window-width="1680"
   inkscape:window-height="987"
   id="namedview4538"
   showgrid="false"
   inkscape:zoom="7.8645047"
   inkscape:cx="52.304397"
   inkscape:cy="43.437259"
   inkscape:window-x="-8"
   inkscape:window-y="-8"
   inkscape:window-maximized="1"
   inkscape:current-layer="g4535" />
<g
   id="g4535">
	<path
   style="fill:#ffffff;fill-opacity:1"
   inkscape:connector-curvature="0"
   id="path4531"
   d="m 52.445693,98.72303 c -2.4,0 -4.20927,-1.421518 -5.472191,-4.99487 L 41.1,78.2 36.7,85.8 c -0.9,1.5 -2.6,2.6 -4.3,2.6 H 8 c -2.8,0 -5,-2.3 -5,-5 0,-2.8 2.3,-5 5,-5 h 21.4 l 8.455618,-15.464232 c 1.1,-1.8 3.1,-2.8 5.2,-2.4 2,0.3 3.7,1.9 4.1,3.9 L 52.427154,83.427154 61.5,37.414848 c 0.4,-2.084215 2.5,-3.560533 5,-3.560533 v 0 c 2.4,0 3.6908,1.925874 4.9,3.560533 L 79.401777,44.970991 84.4,36.789102 c 0.8,-1.772368 2.6,-2.98504 4.7,-2.98504 h 44.6 c 2.80028,0 5,2.052215 5,4.664125 0,2.61191 -2.19995,4.664125 -5,4.664125 H 92.5 L 84,56.499461 c -1.294511,1.599288 -2.180711,2.195426 -4.480711,2.03455 -2.2,-0.160876 -3.550444,-1.393456 -5.119289,-2.838931 L 68.198223,49.152792 58.717229,93.44288 c -1.008615,3.509775 -3.871536,5.28015 -6.271536,5.28015 z"
   sodipodi:nodetypes="ccccsssscccccccccccssssccccccc" />
</g>
</svg>