<?xml version="1.0" encoding="UTF-8" standalone="no"?>
<!-- Copyright 2014.  All rights reserved.  Used with permission for Baseflight Configurator -->

<svg
   xmlns:dc="http://purl.org/dc/elements/1.1/"
   xmlns:cc="http://creativecommons.org/ns#"
   xmlns:rdf="http://www.w3.org/1999/02/22-rdf-syntax-ns#"
   xmlns:svg="http://www.w3.org/2000/svg"
   xmlns="http://www.w3.org/2000/svg"
   xmlns:sodipodi="http://sodipodi.sourceforge.net/DTD/sodipodi-0.dtd"
   xmlns:inkscape="http://www.inkscape.org/namespaces/inkscape"
   version="1.1"
   id="hex6x-mix"
   x="0px"
   y="0px"
   width="124.26px"
   height="112.78px"
   viewBox="6.64 7.57 124.26 112.78"
   xml:space="preserve"
   inkscape:version="0.48.4 r9939"
   sodipodi:docname="tiltrotor.svg"><metadata
   id="metadata3027"><rdf:RDF><cc:Work
       rdf:about=""><dc:format>image/svg+xml</dc:format><dc:type
         rdf:resource="http://purl.org/dc/dcmitype/StillImage" /><dc:title /></cc:Work></rdf:RDF></metadata><defs
   id="defs3025">





</defs><sodipodi:namedview
   pagecolor="#ffffff"
   bordercolor="#666666"
   borderopacity="1"
   objecttolerance="10"
   gridtolerance="10"
   guidetolerance="10"
   inkscape:pageopacity="0"
   inkscape:pageshadow="2"
   inkscape:window-width="1680"
   inkscape:window-height="994"
   id="namedview3023"
   showgrid="false"
   inkscape:zoom="7.9999999"
   inkscape:cx="69.923168"
   inkscape:cy="52.133168"
   inkscape:window-x="-4"
   inkscape:window-y="-4"
   inkscape:window-maximized="1"
   inkscape:current-layer="hex6x-mix" />







<path
   sodipodi:type="arc"
   style="fill:none;stroke:#e615b6;stroke-width:1;stroke-miterlimit:4;stroke-opacity:1;stroke-dasharray:none"
   id="path3029"
   sodipodi:cx="72.888603"
   sodipodi:cy="85.139656"
   sodipodi:rx="27.435598"
   sodipodi:ry="28.049828"
   d="m 100.3242,85.139656 a 27.435598,28.049828 0 1 1 -54.871195,0 27.435598,28.049828 0 1 1 54.871195,0 z"
   transform="matrix(1.0255535,0,0,0.99290609,-38.270398,-20.110409)" /><path
   sodipodi:type="arc"
   style="fill:none;stroke:#e615b6;stroke-width:1;stroke-miterlimit:4;stroke-opacity:1;stroke-dasharray:none"
   id="path3029-1"
   sodipodi:cx="72.888603"
   sodipodi:cy="85.139656"
   sodipodi:rx="27.435598"
   sodipodi:ry="28.049828"
   d="m 100.3242,85.139656 a 27.435598,28.049828 0 1 1 -54.871195,0 27.435598,28.049828 0 1 1 54.871195,0 z"
   transform="matrix(1.0328847,0,0,1.0000039,26.512624,-20.714714)" />



<g
   id="g3133"
   transform="translate(-0.62019147,0)"><polygon
     transform="translate(1.6379436,-40.12968)"
     points="58.63,67.34 65.53,67.34 65.53,76.99 70.53,76.99 70.53,67.34 77.33,67.34 67.98,51.15 "
     style="fill:#ed1c24"
     id="Front_Arrow" /><rect
     y="103.56105"
     x="66.751541"
     height="15.151002"
     width="5.7328115"
     id="rect3983"
     style="fill:none;stroke:#808080;stroke-width:1;stroke-miterlimit:4;stroke-opacity:1;stroke-dasharray:none" /><rect
     y="34.734619"
     x="64.752563"
     height="68.730759"
     width="9.7307606"
     id="rect3131"
     style="fill:none;stroke:#808080;stroke-width:0.76923972;stroke-miterlimit:4;stroke-opacity:1;stroke-dasharray:none" /></g><g
   id="g3038"
   transform="translate(-0.49999997,-0.22641664)"><path
     inkscape:connector-curvature="0"
     id="path5276"
     style="fill:none;stroke:#bf1b2c;stroke-width:1.39525759;stroke-miterlimit:10"
     d="m 30.124324,63.228267 0.191636,-10.477724 13.184945,0.171175 -0.191635,10.477725 -13.184946,-0.171176 0,0 0,0 z" /><text
     transform="matrix(1.0031255,-0.00374819,0.00423614,0.99686841,0,0)"
     style="font-size:9.45879364px;font-family:ArialMT"
     id="text3884-1"
     x="31.701685"
     y="61.489487">S1</text>
<path
     inkscape:connector-curvature="0"
     id="path5276-7"
     style="fill:none;stroke:#bf1b2c;stroke-width:1.41083658;stroke-miterlimit:10"
     d="m 30.132864,76.330037 0.191391,-10.726706 13.168111,0.175243 -0.19139,10.726706 -13.168112,-0.175243 0,0 0,0 z" /><text
     transform="matrix(0.99078204,-0.00379488,0.00418401,1.0092877,0,0)"
     style="font-size:9.34240341px;font-family:ArialMT"
     id="text3884-1-4"
     x="31.48872"
     y="73.669136">S2</text>
<path
     inkscape:connector-curvature="0"
     id="path5276-0"
     style="fill:none;stroke:#bf1b2c;stroke-width:1.39525747;stroke-miterlimit:10"
     d="m 95.45498,63.228267 0.191636,-10.477725 13.184944,0.171176 -0.19165,10.477724 -13.18493,-0.171175 0,0 0,0 z" /><text
     transform="matrix(1.0031255,-0.00374819,0.00423614,0.99686841,0,0)"
     style="font-size:9.45879364px;font-family:ArialMT"
     id="text3884-1-9"
     x="95.804489"
     y="62.014778">S4</text>
<path
     inkscape:connector-curvature="0"
     id="path5276-7-4"
     style="fill:none;stroke:#bf1b2c;stroke-width:1.39525807;stroke-miterlimit:10"
     d="m 95.494606,76.381663 0.191636,-10.477724 13.184938,0.171175 -0.19163,10.477725 -13.184944,-0.171176 0,0 0,0 z" /><text
     transform="matrix(1.0031258,-0.00374819,0.00423613,0.99686812,0,0)"
     style="font-size:9.4587965px;font-family:ArialMT"
     id="text3884-1-4-8"
     x="95.748734"
     y="75.209312">S5</text>
<path
     inkscape:connector-curvature="0"
     id="path5276-8"
     style="fill:none;stroke:#bf1b2c;stroke-width:1.39525759;stroke-miterlimit:10"
     d="m 52.759294,68.804177 0.191637,-10.477724 13.184944,0.171175 -0.191635,10.477725 -13.184946,-0.171176 0,0 0,0 z" /><text
     transform="matrix(1.0031255,-0.00374819,0.00423614,0.99686841,0,0)"
     style="font-size:9.45879364px;font-family:ArialMT"
     id="text3884-1-2"
     x="53.204773"
     y="67.448036">S3</text>
<path
     inkscape:connector-curvature="0"
     id="path5276-7-45"
     style="fill:none;stroke:#bf1b2c;stroke-width:1.39525807;stroke-miterlimit:10"
     d="m 72.578492,68.804175 0.191636,-10.477725 13.184944,0.171174 -0.191635,10.477725 -13.184945,-0.171174 0,0 0,0 z" /><text
     transform="matrix(1.0031252,-0.00374819,0.00423613,0.9968687,0,0)"
     style="font-size:9.45879078px;font-family:ArialMT"
     id="text3884-1-4-5"
     x="72.964256"
     y="67.522301">S6</text>
</g></svg>